<?xml version="1.0" encoding="UTF-8" standalone="no"?>
<!-- Uploaded to: SVG Repo, www.svgrepo.com, Generator: SVG Repo Mixer Tools -->

<svg
   width="800px"
   height="800px"
   viewBox="0 0 32 32"
   id="svg5"
   version="1.1"
   sodipodi:docname="charging.svg"
   xml:space="preserve"
   inkscape:version="1.3 (0e150ed6c4, 2023-07-21)"
   xmlns:inkscape="http://www.inkscape.org/namespaces/inkscape"
   xmlns:sodipodi="http://sodipodi.sourceforge.net/DTD/sodipodi-0.dtd"
   xmlns="http://www.w3.org/2000/svg"
   xmlns:svg="http://www.w3.org/2000/svg"><sodipodi:namedview
     id="namedview1"
     pagecolor="#ffffff"
     bordercolor="#000000"
     borderopacity="0.25"
     inkscape:showpageshadow="2"
     inkscape:pageopacity="0.0"
     inkscape:pagecheckerboard="0"
     inkscape:deskcolor="#d1d1d1"
     inkscape:zoom="0.72566833"
     inkscape:cx="374.13786"
     inkscape:cy="245.98014"
     inkscape:window-width="1920"
     inkscape:window-height="1017"
     inkscape:window-x="-8"
     inkscape:window-y="-8"
     inkscape:window-maximized="1"
     inkscape:current-layer="svg5" /><defs
     id="defs2" /><g
     id="layer1"
     transform="translate(-163.33459,-99.6161)"><path
       d="m 167,105 c -1.6447,0 -3,1.3553 -3,3 v 19 c 0,1.6447 1.3553,3 3,3 h 10 c 1.6447,0 3,-1.3553 3,-3 v -19 c 0,-1.6447 -1.3553,-3 -3,-3 z m 0,2 h 10 c 0.5713,0 1,0.4287 1,1 v 19 c 0,0.5713 -0.4287,1 -1,1 h -10 c -0.5713,0 -1,-0.4287 -1,-1 v -19 c 0,-0.5713 0.4287,-1 1,-1 z"
       id="rect16694"
       style="color:#000000;fill:#000000;fill-rule:evenodd;stroke-linecap:round;stroke-linejoin:round;stroke-miterlimit:4.1;-inkscape-stroke:none" /><path
       d="m 172.31641,110.55078 a 1,1 0 0 0 -1.26563,0.63281 l -2,6 A 1.0001,1.0001 0 0 0 170,118.5 h 2.61133 l -1.56055,4.68359 a 1,1 0 0 0 0.63281,1.26563 1,1 0 0 0 1.26563,-0.63281 l 2,-6 A 1.0001,1.0001 0 0 0 174,116.5 h -2.61133 l 1.56055,-4.68359 a 1,1 0 0 0 -0.63281,-1.26563 z"
       id="path17422"
       style="color:#000000;fill:#000000;fill-rule:evenodd;stroke-linecap:round;stroke-linejoin:round;stroke-miterlimit:4.1;-inkscape-stroke:none" /><path
       d="m 169,102 c -1.0907,0 -2,0.9093 -2,2 v 1 c 0,1.0907 0.9093,2 2,2 h 6 c 1.0907,0 2,-0.9093 2,-2 v -1 c 0,-1.0907 -0.9093,-2 -2,-2 z m 0,2 h 6 v 1 h -6 z"
       id="rect18168"
       style="color:#000000;fill:#000000;fill-rule:evenodd;stroke-linecap:round;stroke-linejoin:round;stroke-miterlimit:4.1;-inkscape-stroke:none" /></g><g
     id="g1"
     transform="matrix(0.48564613,0,0,0.63015448,-13.443911,-0.2363629)"><rect
       width="14"
       height="14"
       x="0"
       y="0"
       id="canvas"
       style="visibility:hidden;fill:none;stroke:none" /><path
       d="m 79.543278,24.074889 -1.143673,14.571868 m 0,0 c -0.248952,3.171977 -2.38777,3.149905 -2.88431,3.149905 -0.496544,0 -4.027987,-0.155551 -4.027987,-3.180831 V 24.074889 c 0,-4.656406 -5.178836,-7.724875 -9.782248,-7.724875 v 4.544044 c 0,0 4.027986,-0.454404 4.027986,3.180831 v 14.540942 c 0,7.270472 8.58397,7.724876 9.782249,7.724876 1.268937,0 11.496112,-0.452143 10.925921,-7.709413 m 0,0 -1.143673,-14.556405 m 0,-2.53906 c 0,0 6.387498,0.06318 6.329687,-10.792106 H 88.174672 V 3.4732505 c 0,-2.061754 -3.452558,-2.049335 -3.452558,-0.113601 V 10.630122 H 80.118703 V 3.3596495 c 0,-1.985508 -3.452558,-1.981884 -3.452558,0 v 7.2704725 h -3.452558 c 0.05765,10.856232 6.329691,10.905707 6.329691,10.905707"
       id="charging-station"
       style="fill:#000000;fill-opacity:1;stroke:none;stroke-width:4.09077"
       sodipodi:nodetypes="cccsssccsssccccccssccssccc" /></g><g
     style="fill:#000000"
     id="g4"
     transform="matrix(0.01505053,0,0,0.01505053,22.04485,13.922305)"><g
       id="g3">&#10;	<g
   id="g2">&#10;		<path
   d="M 404.199,143.793 H 207.798 c -30.857,0 -55.874,25.018 -55.874,55.885 v 212.643 c 0,30.865 25.018,55.886 55.874,55.886 h 196.403 c 30.86,0 55.874,-25.019 55.874,-55.886 V 199.678 c 0,-30.867 -25.016,-55.885 -55.876,-55.885 z"
   id="path1" />&#10;		<path
   d="m 578.497,329.491 c 12.974,0 23.491,-10.517 23.491,-23.491 0,-12.974 -10.517,-23.491 -23.491,-23.491 h -53.624 v -53.075 h 53.624 c 12.974,0 23.491,-10.517 23.491,-23.491 0,-12.974 -10.517,-23.491 -23.491,-23.491 h -54.1 C 519.801,130.518 480.289,88.486 429.541,80.036 V 23.491 C 429.541,10.517 419.024,0 406.05,0 393.076,0 382.559,10.517 382.559,23.491 V 78.46 H 329.487 V 23.491 C 329.487,10.517 318.971,0 305.997,0 293.023,0 282.505,10.517 282.505,23.491 V 78.46 h -53.07 V 23.491 C 229.434,10.517 218.917,0 205.943,0 192.969,0 182.452,10.517 182.452,23.491 V 80.035 C 131.703,88.485 92.19,130.517 87.596,182.451 H 33.498 c -12.974,0 -23.491,10.517 -23.491,23.491 0,12.974 10.517,23.491 23.491,23.491 h 53.624 v 53.075 H 33.498 c -12.974,0 -23.491,10.517 -23.491,23.491 0,12.974 10.517,23.491 23.491,23.491 h 53.624 v 53.074 H 33.498 c -12.974,0 -23.491,10.517 -23.491,23.491 0,12.974 10.517,23.491 23.491,23.491 h 54.1 c 4.594,51.932 44.108,93.965 94.856,102.413 v 56.549 c 0,12.974 10.517,23.491 23.491,23.491 12.974,0 23.491,-10.517 23.491,-23.491 v -54.974 h 53.07 v 54.974 c 0,12.974 10.518,23.491 23.492,23.491 12.974,0 23.491,-10.517 23.491,-23.491 v -54.974 h 53.072 v 54.974 c 0,12.974 10.517,23.491 23.491,23.491 12.974,0 23.491,-10.517 23.491,-23.491 v -56.545 c 50.749,-8.448 90.261,-50.48 94.856,-102.413 h 54.1 c 12.974,0 23.491,-10.517 23.491,-23.491 0,-12.974 -10.517,-23.491 -23.491,-23.491 h -53.624 v -53.074 h 53.622 z m -91.145,89.922 c 0,42.238 -34.364,76.602 -76.607,76.602 H 201.249 c -42.241,0 -76.605,-34.362 -76.605,-76.602 v -226.83 c 0,-42.24 34.364,-76.604 76.605,-76.604 h 209.496 c 42.241,0 76.607,34.364 76.607,76.604 z"
   id="path2" />&#10;	</g>&#10;</g></g></svg>
