<?xml version="1.0" encoding="UTF-8" standalone="no"?>
<svg
   viewBox="0 0 576 512"
   version="1.1"
   id="svg1"
   sodipodi:docname="discharging.svg"
   inkscape:version="1.3 (0e150ed6c4, 2023-07-21)"
   xmlns:inkscape="http://www.inkscape.org/namespaces/inkscape"
   xmlns:sodipodi="http://sodipodi.sourceforge.net/DTD/sodipodi-0.dtd"
   xmlns="http://www.w3.org/2000/svg"
   xmlns:svg="http://www.w3.org/2000/svg">
  <defs
     id="defs1" />
  <sodipodi:namedview
     id="namedview1"
     pagecolor="#ffffff"
     bordercolor="#000000"
     borderopacity="0.25"
     inkscape:showpageshadow="2"
     inkscape:pageopacity="0.0"
     inkscape:pagecheckerboard="0"
     inkscape:deskcolor="#d1d1d1"
     inkscape:zoom="1.6035156"
     inkscape:cx="245.39829"
     inkscape:cy="266.60171"
     inkscape:window-width="1920"
     inkscape:window-height="1017"
     inkscape:window-x="-8"
     inkscape:window-y="-8"
     inkscape:window-maximized="1"
     inkscape:current-layer="svg1" />
  <!--!Font Awesome Free 6.6.0 by @fontawesome - https://fontawesome.com License - https://fontawesome.com/license/free Copyright 2024 Fonticons, Inc.-->
  <path
     d="m 336.47617,311.61232 c -9.14566,0 -16.53453,8.39076 -16.53453,18.77651 0,10.38576 7.38887,18.77652 16.53453,18.77652 h 82.67262 c 9.14566,0 16.53453,-8.39076 16.53453,-18.77652 v -93.88256 c 0,-10.38576 -7.38887,-18.77652 -16.53453,-18.77652 -9.14566,0 -16.53452,8.39076 -16.53452,18.77652 v 48.52555 l -87.52965,-99.3395 c -6.45879,-7.33457 -16.94787,-7.33457 -23.40668,0 l -54.40891,61.78647 -70.99511,-80.56297 c -6.45879,-7.33457 -16.9479,-7.33457 -23.40669,0 -6.4588,7.33458 -6.4588,19.24592 0,26.5805 l 82.67261,93.88256 c 6.45881,7.33458 16.94789,7.33458 23.40669,0 l 54.4606,-61.84514 75.80046,86.07858 z"
     id="path1"
     style="fill:#f9ac11;fill-opacity:1;stroke-width:0.550622"
     inkscape:export-filename="discharging.png"
     inkscape:export-xdpi="96"
     inkscape:export-ydpi="96" />
  <ellipse
     style="fill:#000000;fill-opacity:0;stroke-width:2.26772"
     id="path2"
     cx="276.8916"
     cy="253.81729"
     rx="263.17175"
     ry="160.89647" />
  <ellipse
     style="fill:#000000;fill-opacity:0;stroke-width:2.26772"
     id="path3"
     cx="154.03654"
     cy="65.792938"
     rx="86.060898"
     ry="33.98782" />
  <path
     style="fill:#000000;fill-opacity:1;stroke-width:2.26772"
     id="path4"
     sodipodi:type="arc"
     sodipodi:cx="181.47624"
     sodipodi:cy="56.438488"
     sodipodi:rx="54.879414"
     sodipodi:ry="30.869671"
     sodipodi:start="0"
     sodipodi:end="0.017453293"
     sodipodi:arc-type="arc"
     d="m 236.35566,56.438488 a 54.879414,30.869671 0 0 1 -0.008,0.53875"
     sodipodi:open="true" />
  <path
     sodipodi:type="spiral"
     style="fill:none;fill-opacity:1;fill-rule:evenodd;stroke:#f9ac11;stroke-width:14.38369147;stroke-dasharray:none;stroke-opacity:1"
     id="path9"
     sodipodi:cx="99.780754"
     sodipodi:cy="30.557856"
     sodipodi:expansion="0"
     sodipodi:revolution="1.01"
     sodipodi:radius="65.83947"
     sodipodi:argument="-18.953938"
     sodipodi:t0="0"
     d="M 165.26187,23.697899 C 168.99871,59.367589 142.3104,92.302132 106.64071,96.038973 70.97102,99.775815 38.036477,73.087503 34.299636,37.417812 30.562795,1.7481219 57.251107,-31.186421 92.920797,-34.923262 c 35.669693,-3.736841 68.604233,22.95147 72.341073,58.621161 0.14368,1.371432 0.24425,2.747378 0.30153,4.125126"
     transform="matrix(3.6081141,0,0,3.6081141,-70.656146,146.67921)"
     inkscape:export-filename="discharging.png"
     inkscape:export-xdpi="96"
     inkscape:export-ydpi="96" />
</svg>
