<?xml version="1.0" encoding="UTF-8" standalone="no"?>
<svg
   viewBox="0 0 448 512"
   version="1.1"
   id="svg1"
   sodipodi:docname="logo.svg"
   inkscape:version="1.3 (0e150ed6c4, 2023-07-21)"
   inkscape:export-filename="logo.png"
   inkscape:export-xdpi="96"
   inkscape:export-ydpi="96"
   xmlns:inkscape="http://www.inkscape.org/namespaces/inkscape"
   xmlns:sodipodi="http://sodipodi.sourceforge.net/DTD/sodipodi-0.dtd"
   xmlns="http://www.w3.org/2000/svg"
   xmlns:svg="http://www.w3.org/2000/svg">
  <defs
     id="defs1" />
  <sodipodi:namedview
     id="namedview1"
     pagecolor="#ffffff"
     bordercolor="#000000"
     borderopacity="0.25"
     inkscape:showpageshadow="2"
     inkscape:pageopacity="0.0"
     inkscape:pagecheckerboard="0"
     inkscape:deskcolor="#d1d1d1"
     inkscape:zoom="1.6035156"
     inkscape:cx="224.19489"
     inkscape:cy="255.37637"
     inkscape:window-width="1920"
     inkscape:window-height="1017"
     inkscape:window-x="-8"
     inkscape:window-y="-8"
     inkscape:window-maximized="1"
     inkscape:current-layer="svg1" />
  <!--! Font Awesome Pro 6.5.2 by @fontawesome - https://fontawesome.com License - https://fontawesome.com/license (Commercial License) Copyright 2024 Fonticons, Inc. -->
  <path
     d="M321.7 0c19.1 0 32.9 18.3 27.6 36.6L295.8 224h85.2c19.3 0 34.9 15.6 34.9 34.9c0 10.3-4.5 20-12.3 26.6L144.9 505.2c-5.2 4.4-11.8 6.8-18.6 6.8c-19.1 0-32.9-18.3-27.6-36.6L152.2 288H65.7C47.1 288 32 272.9 32 254.3c0-9.9 4.3-19.2 11.8-25.6L303.1 6.9C308.3 2.4 314.9 0 321.7 0zM285.6 85L104.4 240H184c7.5 0 14.6 3.5 19.2 9.5s6 13.8 3.9 21L162.3 427.5 345.5 272H264c-7.5 0-14.6-3.5-19.2-9.5s-6-13.8-3.9-21L285.6 85z"
     id="path1"
     style="fill:#00ff00" />
</svg>
